<mxfile host="65bd71144e">
    <diagram id="Bzl2zgcWE6qFwizdb6f-" name="Page-1">
        <mxGraphModel dx="2393" dy="1927" grid="1" gridSize="10" guides="1" tooltips="1" connect="1" arrows="1" fold="1" page="0" pageScale="1" pageWidth="850" pageHeight="1100" math="0" shadow="0">
            <root>
                <mxCell id="0"/>
                <mxCell id="1" parent="0"/>
                <mxCell id="45" value="" style="swimlane;startSize=0;" parent="1" vertex="1">
                    <mxGeometry x="880" y="60" width="720" height="650" as="geometry"/>
                </mxCell>
                <mxCell id="9" value="Task&lt;br&gt;* description&lt;br&gt;* type&lt;br&gt;* cost&lt;br&gt;* author&lt;br&gt;* status (done, failed, cancelled)&amp;nbsp;&lt;br&gt;* date" style="rounded=0;whiteSpace=wrap;html=1;" parent="45" vertex="1">
                    <mxGeometry x="140" y="140" width="180" height="110" as="geometry"/>
                </mxCell>
                <mxCell id="13" value="Client&lt;br&gt;* external client_id&lt;br&gt;* discount&lt;br&gt;*&amp;nbsp; total_paid&lt;br&gt;* phone" style="rounded=0;whiteSpace=wrap;html=1;" parent="45" vertex="1">
                    <mxGeometry x="140" y="290" width="180" height="110" as="geometry"/>
                </mxCell>
                <mxCell id="23" value="Worker&lt;br&gt;*characteristics&lt;br&gt;&lt;span style=&quot;font-family: &amp;quot;PT Root UI&amp;quot;, sans-serif; font-size: 16px; text-align: left; caret-color: rgb(55, 53, 47);&quot;&gt;имя, возраст, порода, цвет шерсти, фото&lt;/span&gt;&amp;nbsp;&lt;br&gt;* characteristics code (20 chars)" style="rounded=0;whiteSpace=wrap;html=1;" parent="45" vertex="1">
                    <mxGeometry x="400" y="50" width="180" height="120" as="geometry"/>
                </mxCell>
                <mxCell id="27" value="Applicant&lt;br&gt;* status (new/declined)" style="rounded=0;whiteSpace=wrap;html=1;" parent="45" vertex="1">
                    <mxGeometry x="400" y="220" width="180" height="110" as="geometry"/>
                </mxCell>
                <mxCell id="42" value="bet&lt;br&gt;*amount&lt;br&gt;* creator&lt;br&gt;* order&lt;br&gt;*condition" style="rounded=0;whiteSpace=wrap;html=1;" parent="45" vertex="1">
                    <mxGeometry x="410" y="390" width="160" height="130" as="geometry"/>
                </mxCell>
                <mxCell id="46" value="" style="swimlane;startSize=0;" parent="1" vertex="1">
                    <mxGeometry x="-780" y="-470" width="1430" height="2500" as="geometry"/>
                </mxCell>
                <mxCell id="2" value="View tasks list" style="rounded=0;whiteSpace=wrap;html=1;" parent="46" vertex="1">
                    <mxGeometry x="510" y="130" width="120" height="60" as="geometry"/>
                </mxCell>
                <mxCell id="3" value="Cat-tester" style="rounded=0;whiteSpace=wrap;html=1;" parent="46" vertex="1">
                    <mxGeometry x="320" y="130" width="120" height="60" as="geometry"/>
                </mxCell>
                <mxCell id="4" value="Create task" style="rounded=0;whiteSpace=wrap;html=1;" parent="46" vertex="1">
                    <mxGeometry x="510" y="210" width="120" height="60" as="geometry"/>
                </mxCell>
                <mxCell id="5" value="login via external system" style="rounded=0;whiteSpace=wrap;html=1;" parent="46" vertex="1">
                    <mxGeometry x="670" y="40" width="120" height="60" as="geometry"/>
                </mxCell>
                <mxCell id="6" value="Cat-manager" style="rounded=0;whiteSpace=wrap;html=1;" parent="46" vertex="1">
                    <mxGeometry x="320" y="640" width="120" height="60" as="geometry"/>
                </mxCell>
                <mxCell id="7" value="View service type list&amp;nbsp;" style="rounded=0;whiteSpace=wrap;html=1;" parent="46" vertex="1">
                    <mxGeometry x="510" y="640" width="120" height="60" as="geometry"/>
                </mxCell>
                <mxCell id="8" value="CRUD service type" style="rounded=0;whiteSpace=wrap;html=1;" parent="46" vertex="1">
                    <mxGeometry x="510" y="720" width="120" height="60" as="geometry"/>
                </mxCell>
                <mxCell id="10" value="Change status" style="rounded=0;whiteSpace=wrap;html=1;" parent="46" vertex="1">
                    <mxGeometry x="510" y="290" width="120" height="60" as="geometry"/>
                </mxCell>
                <mxCell id="12" value="calculate invoices" style="rounded=0;whiteSpace=wrap;html=1;" parent="46" vertex="1">
                    <mxGeometry x="490" y="2110" width="120" height="60" as="geometry"/>
                </mxCell>
                <mxCell id="14" value="Match worker" style="rounded=0;whiteSpace=wrap;html=1;" parent="46" vertex="1">
                    <mxGeometry x="660" y="210" width="120" height="60" as="geometry"/>
                </mxCell>
                <mxCell id="15" value="Task cost calculation" style="rounded=0;whiteSpace=wrap;html=1;" parent="46" vertex="1">
                    <mxGeometry x="810" y="210" width="120" height="60" as="geometry"/>
                </mxCell>
                <mxCell id="16" value="Cat-worker" style="rounded=0;whiteSpace=wrap;html=1;" parent="46" vertex="1">
                    <mxGeometry x="310" y="1470" width="120" height="60" as="geometry"/>
                </mxCell>
                <mxCell id="17" value="Start task" style="rounded=0;whiteSpace=wrap;html=1;" parent="46" vertex="1">
                    <mxGeometry x="500" y="1570" width="120" height="60" as="geometry"/>
                </mxCell>
                <mxCell id="18" value="End task" style="rounded=0;whiteSpace=wrap;html=1;" parent="46" vertex="1">
                    <mxGeometry x="500" y="1650" width="120" height="60" as="geometry"/>
                </mxCell>
                <mxCell id="19" value="Tasks list" style="rounded=0;whiteSpace=wrap;html=1;" parent="46" vertex="1">
                    <mxGeometry x="500" y="1470" width="120" height="60" as="geometry"/>
                </mxCell>
                <mxCell id="20" value="Application" style="rounded=0;whiteSpace=wrap;html=1;" parent="46" vertex="1">
                    <mxGeometry x="500" y="1740" width="120" height="60" as="geometry"/>
                </mxCell>
                <mxCell id="21" value="Vacancies list" style="rounded=0;whiteSpace=wrap;html=1;" parent="46" vertex="1">
                    <mxGeometry x="510" y="860" width="120" height="60" as="geometry"/>
                </mxCell>
                <mxCell id="22" value="Configure tests list for vacancy" style="rounded=0;whiteSpace=wrap;html=1;" parent="46" vertex="1">
                    <mxGeometry x="510" y="930" width="120" height="60" as="geometry"/>
                </mxCell>
                <mxCell id="25" value="Applications list (for vacancy)" style="rounded=0;whiteSpace=wrap;html=1;" parent="46" vertex="1">
                    <mxGeometry x="510" y="790" width="120" height="60" as="geometry"/>
                </mxCell>
                <mxCell id="26" value="Configure tests list for applicant" style="rounded=0;whiteSpace=wrap;html=1;" parent="46" vertex="1">
                    <mxGeometry x="510" y="1000" width="120" height="60" as="geometry"/>
                </mxCell>
                <mxCell id="28" value="System" style="rounded=0;whiteSpace=wrap;html=1;" parent="46" vertex="1">
                    <mxGeometry x="300" y="2040" width="120" height="60" as="geometry"/>
                </mxCell>
                <mxCell id="29" value="Check expiration" style="rounded=0;whiteSpace=wrap;html=1;" parent="46" vertex="1">
                    <mxGeometry x="490" y="2040" width="120" height="60" as="geometry"/>
                </mxCell>
                <mxCell id="31" value="Recreate failed task" style="rounded=0;whiteSpace=wrap;html=1;" parent="46" vertex="1">
                    <mxGeometry x="510" y="445" width="120" height="60" as="geometry"/>
                </mxCell>
                <mxCell id="32" value="&lt;span style=&quot;font-family: &amp;quot;PT Root UI&amp;quot;, sans-serif; font-size: 16px; text-align: left; caret-color: rgb(55, 53, 47);&quot;&gt;Сотрудник отдела расходников&lt;/span&gt;" style="rounded=0;whiteSpace=wrap;html=1;" parent="46" vertex="1">
                    <mxGeometry x="300" y="2280" width="120" height="60" as="geometry"/>
                </mxCell>
                <mxCell id="33" value="выдано" style="rounded=0;whiteSpace=wrap;html=1;" parent="46" vertex="1">
                    <mxGeometry x="490" y="2280" width="120" height="60" as="geometry"/>
                </mxCell>
                <mxCell id="34" value="список" style="rounded=0;whiteSpace=wrap;html=1;" parent="46" vertex="1">
                    <mxGeometry x="490" y="2350" width="120" height="60" as="geometry"/>
                </mxCell>
                <mxCell id="35" value="&lt;span style=&quot;box-sizing: border-box; border-width: 0px; border-style: solid; border-color: currentcolor; --tw-border-spacing-x: 0; --tw-border-spacing-y: 0; --tw-translate-x: 0; --tw-translate-y: 0; --tw-rotate: 0; --tw-skew-x: 0; --tw-skew-y: 0; --tw-scale-x: 1; --tw-scale-y: 1; --tw-pan-x: ; --tw-pan-y: ; --tw-pinch-zoom: ; --tw-scroll-snap-strictness: proximity; --tw-gradient-from-position: ; --tw-gradient-via-position: ; --tw-gradient-to-position: ; --tw-ordinal: ; --tw-slashed-zero: ; --tw-numeric-figure: ; --tw-numeric-spacing: ; --tw-numeric-fraction: ; --tw-ring-inset: ; --tw-ring-offset-width: 0px; --tw-ring-offset-color: #fff; --tw-ring-color: rgb(59 130 246 / .5); --tw-ring-offset-shadow: 0 0 #0000; --tw-ring-shadow: 0 0 #0000; --tw-shadow: 0 0 #0000; --tw-shadow-colored: 0 0 #0000; --tw-blur: ; --tw-brightness: ; --tw-contrast: ; --tw-grayscale: ; --tw-hue-rotate: ; --tw-invert: ; --tw-saturate: ; --tw-sepia: ; --tw-drop-shadow: ; --tw-backdrop-blur: ; --tw-backdrop-brightness: ; --tw-backdrop-contrast: ; --tw-backdrop-grayscale: ; --tw-backdrop-hue-rotate: ; --tw-backdrop-invert: ; --tw-backdrop-opacity: ; --tw-backdrop-saturate: ; --tw-backdrop-sepia: ; font-weight: 600; margin-block: 0px; outline: 0px; font-family: &amp;quot;PT Root UI&amp;quot;, sans-serif; font-size: 16px; text-align: left; caret-color: rgb(55, 53, 47);&quot;&gt;fur-tune-&lt;/span&gt;&lt;span style=&quot;box-sizing: border-box; border-width: 0px; border-style: solid; border-color: currentcolor; --tw-border-spacing-x: 0; --tw-border-spacing-y: 0; --tw-translate-x: 0; --tw-translate-y: 0; --tw-rotate: 0; --tw-skew-x: 0; --tw-skew-y: 0; --tw-scale-x: 1; --tw-scale-y: 1; --tw-pan-x: ; --tw-pan-y: ; --tw-pinch-zoom: ; --tw-scroll-snap-strictness: proximity; --tw-gradient-from-position: ; --tw-gradient-via-position: ; --tw-gradient-to-position: ; --tw-ordinal: ; --tw-slashed-zero: ; --tw-numeric-figure: ; --tw-numeric-spacing: ; --tw-numeric-fraction: ; --tw-ring-inset: ; --tw-ring-offset-width: 0px; --tw-ring-offset-color: #fff; --tw-ring-color: rgb(59 130 246 / .5); --tw-ring-offset-shadow: 0 0 #0000; --tw-ring-shadow: 0 0 #0000; --tw-shadow: 0 0 #0000; --tw-shadow-colored: 0 0 #0000; --tw-blur: ; --tw-brightness: ; --tw-contrast: ; --tw-grayscale: ; --tw-hue-rotate: ; --tw-invert: ; --tw-saturate: ; --tw-sepia: ; --tw-drop-shadow: ; --tw-backdrop-blur: ; --tw-backdrop-brightness: ; --tw-backdrop-contrast: ; --tw-backdrop-grayscale: ; --tw-backdrop-hue-rotate: ; --tw-backdrop-invert: ; --tw-backdrop-opacity: ; --tw-backdrop-saturate: ; --tw-backdrop-sepia: ; margin-block: 0px; outline: 0px; font-family: &amp;quot;PT Root UI&amp;quot;, sans-serif; font-size: 16px; text-align: left; caret-color: rgb(55, 53, 47);&quot;&gt;печенья&lt;/span&gt;" style="rounded=0;whiteSpace=wrap;html=1;" parent="46" vertex="1">
                    <mxGeometry x="710" y="160" width="120" height="60" as="geometry"/>
                </mxCell>
                <mxCell id="36" value="check quality" style="rounded=0;whiteSpace=wrap;html=1;" parent="46" vertex="1">
                    <mxGeometry x="510" y="1070" width="120" height="60" as="geometry"/>
                </mxCell>
                <mxCell id="37" value="invoices log" style="rounded=0;whiteSpace=wrap;html=1;" parent="46" vertex="1">
                    <mxGeometry x="500" y="1810" width="120" height="60" as="geometry"/>
                </mxCell>
                <mxCell id="39" value="invoices log" style="rounded=0;whiteSpace=wrap;html=1;" parent="46" vertex="1">
                    <mxGeometry x="510" y="370" width="120" height="60" as="geometry"/>
                </mxCell>
                <mxCell id="40" value="give money" style="rounded=0;whiteSpace=wrap;html=1;" parent="46" vertex="1">
                    <mxGeometry x="510" y="1140" width="120" height="60" as="geometry"/>
                </mxCell>
                <mxCell id="41" value="bet" style="rounded=0;whiteSpace=wrap;html=1;" parent="46" vertex="1">
                    <mxGeometry x="510" y="1220" width="120" height="60" as="geometry"/>
                </mxCell>
                <mxCell id="47" value="" style="swimlane;startSize=0;" parent="1" vertex="1">
                    <mxGeometry x="820" y="830" width="1040" height="1100" as="geometry"/>
                </mxCell>
                <mxCell id="50" value="" style="swimlane;startSize=0;" parent="47" vertex="1">
                    <mxGeometry x="80" y="70" width="340" height="180" as="geometry"/>
                </mxCell>
                <mxCell id="63" value="" style="edgeStyle=none;html=1;" parent="50" source="49" target="62" edge="1">
                    <mxGeometry relative="1" as="geometry"/>
                </mxCell>
                <mxCell id="49" value="account" style="rounded=0;whiteSpace=wrap;html=1;" parent="50" vertex="1">
                    <mxGeometry x="40" y="70" width="120" height="60" as="geometry"/>
                </mxCell>
                <mxCell id="51" value="auth" style="text;html=1;align=center;verticalAlign=middle;resizable=0;points=[];autosize=1;strokeColor=none;fillColor=none;" parent="50" vertex="1">
                    <mxGeometry x="170" y="20" width="50" height="30" as="geometry"/>
                </mxCell>
                <mxCell id="62" value="role" style="rounded=0;whiteSpace=wrap;html=1;" parent="50" vertex="1">
                    <mxGeometry x="190" y="70" width="120" height="60" as="geometry"/>
                </mxCell>
                <mxCell id="55" value="" style="swimlane;startSize=0;" parent="47" vertex="1">
                    <mxGeometry x="30" y="340" width="440" height="300" as="geometry"/>
                </mxCell>
                <mxCell id="60" value="" style="edgeStyle=none;html=1;" parent="55" source="57" target="59" edge="1">
                    <mxGeometry relative="1" as="geometry"/>
                </mxCell>
                <mxCell id="65" value="" style="edgeStyle=none;html=1;" parent="55" source="57" target="58" edge="1">
                    <mxGeometry relative="1" as="geometry"/>
                </mxCell>
                <mxCell id="57" value="task" style="rounded=0;whiteSpace=wrap;html=1;" parent="55" vertex="1">
                    <mxGeometry x="120" y="150" width="120" height="60" as="geometry"/>
                </mxCell>
                <mxCell id="56" value="Tasks" style="text;html=1;align=center;verticalAlign=middle;resizable=0;points=[];autosize=1;strokeColor=none;fillColor=none;" parent="55" vertex="1">
                    <mxGeometry x="160" y="10" width="50" height="30" as="geometry"/>
                </mxCell>
                <mxCell id="58" value="account" style="rounded=0;whiteSpace=wrap;html=1;" parent="55" vertex="1">
                    <mxGeometry x="125" y="60" width="120" height="60" as="geometry"/>
                </mxCell>
                <mxCell id="59" value="data" style="rounded=0;whiteSpace=wrap;html=1;" parent="55" vertex="1">
                    <mxGeometry x="290" y="150" width="120" height="60" as="geometry"/>
                </mxCell>
                <mxCell id="64" style="edgeStyle=none;html=1;exitX=0.5;exitY=0;exitDx=0;exitDy=0;entryX=0.5;entryY=1;entryDx=0;entryDy=0;" parent="47" source="58" target="49" edge="1">
                    <mxGeometry relative="1" as="geometry"/>
                </mxCell>
                <mxCell id="66" value="" style="swimlane;startSize=0;" parent="47" vertex="1">
                    <mxGeometry x="500" y="345" width="430" height="290" as="geometry"/>
                </mxCell>
                <mxCell id="67" value="" style="edgeStyle=none;html=1;" parent="66" source="69" target="72" edge="1">
                    <mxGeometry relative="1" as="geometry"/>
                </mxCell>
                <mxCell id="68" value="" style="edgeStyle=none;html=1;" parent="66" source="69" target="71" edge="1">
                    <mxGeometry relative="1" as="geometry"/>
                </mxCell>
                <mxCell id="69" value="job" style="rounded=0;whiteSpace=wrap;html=1;" parent="66" vertex="1">
                    <mxGeometry x="120" y="150" width="120" height="60" as="geometry"/>
                </mxCell>
                <mxCell id="70" value="Vacancies" style="text;html=1;align=center;verticalAlign=middle;resizable=0;points=[];autosize=1;strokeColor=none;fillColor=none;" parent="66" vertex="1">
                    <mxGeometry x="145" y="10" width="80" height="30" as="geometry"/>
                </mxCell>
                <mxCell id="71" value="account" style="rounded=0;whiteSpace=wrap;html=1;" parent="66" vertex="1">
                    <mxGeometry x="125" y="60" width="120" height="60" as="geometry"/>
                </mxCell>
                <mxCell id="72" value="data" style="rounded=0;whiteSpace=wrap;html=1;" parent="66" vertex="1">
                    <mxGeometry x="290" y="150" width="120" height="60" as="geometry"/>
                </mxCell>
                <mxCell id="73" style="edgeStyle=none;html=1;exitX=0.5;exitY=0;exitDx=0;exitDy=0;entryX=0.75;entryY=1;entryDx=0;entryDy=0;" parent="47" source="71" target="49" edge="1">
                    <mxGeometry relative="1" as="geometry"/>
                </mxCell>
                <mxCell id="74" value="" style="swimlane;startSize=0;" parent="47" vertex="1">
                    <mxGeometry x="40" y="690" width="430" height="290" as="geometry"/>
                </mxCell>
                <mxCell id="75" value="" style="edgeStyle=none;html=1;" parent="74" source="77" target="80" edge="1">
                    <mxGeometry relative="1" as="geometry"/>
                </mxCell>
                <mxCell id="76" value="" style="edgeStyle=none;html=1;" parent="74" source="77" target="79" edge="1">
                    <mxGeometry relative="1" as="geometry"/>
                </mxCell>
                <mxCell id="77" value="bet" style="rounded=0;whiteSpace=wrap;html=1;" parent="74" vertex="1">
                    <mxGeometry x="120" y="150" width="120" height="60" as="geometry"/>
                </mxCell>
                <mxCell id="78" value="Bets" style="text;html=1;align=center;verticalAlign=middle;resizable=0;points=[];autosize=1;strokeColor=none;fillColor=none;" parent="74" vertex="1">
                    <mxGeometry x="160" y="10" width="50" height="30" as="geometry"/>
                </mxCell>
                <mxCell id="79" value="account" style="rounded=0;whiteSpace=wrap;html=1;" parent="74" vertex="1">
                    <mxGeometry x="125" y="60" width="120" height="60" as="geometry"/>
                </mxCell>
                <mxCell id="80" value="data" style="rounded=0;whiteSpace=wrap;html=1;" parent="74" vertex="1">
                    <mxGeometry x="290" y="150" width="120" height="60" as="geometry"/>
                </mxCell>
            </root>
        </mxGraphModel>
    </diagram>
</mxfile>